<?xml version="1.0" encoding="utf-8"?>
<!-- Generator: Adobe Illustrator 23.0.1, SVG Export Plug-In . SVG Version: 6.00 Build 0)  -->
<svg version="1.1" id="Layer_1" xmlns="http://www.w3.org/2000/svg" xmlns:xlink="http://www.w3.org/1999/xlink" x="0px" y="0px"
	 viewBox="0 0 181 209" style="enable-background:new 0 0 181 209;" xml:space="preserve">
<style type="text/css">
	.st0{fill:#18A5D6;stroke:#99A5AB;stroke-width:10.6698;stroke-linecap:round;stroke-linejoin:round;stroke-miterlimit:10;}
	.st1{fill:#FFFFFF;}
	.st2{font-family:'Courier';}
	.st3{font-size:32px;}
</style>
<g id="surface2602">
	<path class="st0" d="M6.7,152.9l83.8,48.4l83.8-48.4V56.1L90.5,7.7L6.7,56.1V152.9z"/>
	<text transform="matrix(1 0 0 1 32.8904 68.2241)" class="st1 st2 st3">teachR</text>
</g>
<g id="layer1">
	<path id="path2735" d="M71,78.9v39.6l-2.4,2.9c0,0.1-0.7-2.3-0.7-2.3c-0.8-2.9-3.6-5.7-7.7-5.7h-7.7c-3.6,0-6.5,3.2-7.1,5.2
		L41.7,132h5l3-10.9h1.2L48,132h17.5l-3.1-10.9h1.3l1.7,5.3c0.8,2.3,2.8,2.8,4.3,0.9l6.1-7.3c0.2-0.3,0.3-0.5,0.4-0.8l64.4,0.1V79
		L71,78.9z M72.4,80.3l66.7,0.1V118l-63-0.1c-0.2-0.6-0.6-1.1-1.2-1.3l13.6-14.3l0.5,0.5l-13.3,13.9l61.9,0.1V81.5l-64.1-0.1v34.9
		c-0.5,0-0.9,0.2-1.3,0.6L72.4,80.3z M56.5,100.8c-3.1,0-5.6,2.5-5.6,5.6c0,3.1,2.5,5.6,5.6,5.6c3.1,0,5.6-2.5,5.6-5.6
		C62.2,103.3,59.6,100.8,56.5,100.8z M40.5,133.3v2.6h30.4v-2.6H40.5z M40.5,136.4v1.5H66v19.8H40.5v1.6h27.1v-22.9L40.5,136.4z
		 M40.5,138.1v19.4h25.2v-19.4L40.5,138.1z"/>
</g>
</svg>
